<svg version="1.2" xmlns="http://www.w3.org/2000/svg" viewBox="0 0 629 660" width="629" height="660"><defs><clipPath clipPathUnits="userSpaceOnUse" id="cp1"><path d="m18.34 641.28l93-198h-58c0 0-28.26 1.19-14-27 14.26-28.2 65-118 65-118h-84c0 0-33.87 0.93-12-32 21.86-32.94 118-226 118-226 0 0 18.97-39.45 56-40 37.02-0.55 419 0 419 0 0 0 27.06-1.1 27 26-0.08 30.98 0 63 0 63 0 0 0.36 27.32-31 28-34.64 0.75-320 0-320 0l-48 73h293c0 0 28.01-1.33 28 27-0.02 31.06-0.03 64.98 0 65 0 0 2.01 25.53-26 26-28.02 0.46-270 1-270 1l-38 55h73c0 0 11.92-0.3 15.31 6.34 2.41 4.7 4.21 11.71-9.31 25.66-31.23 32.21-247 253-247 253 0 0-11.59 13.43-22 9-13.3-5.66-8-17-8-17z"/></clipPath></defs><style></style><g clip-path="url(#cp1)"><rect width="629" height="660" style="fill:#fff"/></g></svg>